<svg width="31" height="31" viewBox="0 0 31 31" fill="none" xmlns="http://www.w3.org/2000/svg">
<circle cx="15.5" cy="15.5" r="15.5" fill="#FDCA7E"/>
<path d="M20.039 9.941C19.8373 9.941 19.6401 10.0008 19.4723 10.1129C19.3046 10.225 19.1738 10.3843 19.0966 10.5707C19.0194 10.757 18.9992 10.9621 19.0386 11.16C19.078 11.3579 19.1751 11.5396 19.3178 11.6822C19.4604 11.8249 19.6421 11.922 19.84 11.9614C20.0379 12.0008 20.243 11.9806 20.4293 11.9034C20.6157 11.8262 20.775 11.6954 20.8871 11.5277C20.9992 11.3599 21.059 11.1627 21.059 10.961C21.059 10.6905 20.9515 10.431 20.7602 10.2398C20.569 10.0485 20.3095 9.941 20.039 9.941ZM23.949 11.998C23.9325 11.2928 23.8004 10.595 23.558 9.9325C23.3419 9.36566 23.0055 8.85239 22.572 8.428C22.1511 7.99231 21.6366 7.65805 21.0675 7.4505C20.4068 7.20074 19.7082 7.06563 19.002 7.051C18.101 7 17.812 7 15.5 7C13.188 7 12.899 7 11.998 7.051C11.2918 7.06563 10.5932 7.20074 9.9325 7.4505C9.36442 7.66015 8.85039 7.99413 8.428 8.428C7.99231 8.8489 7.65805 9.36337 7.4505 9.9325C7.20074 10.5932 7.06563 11.2918 7.051 11.998C7 12.899 7 13.188 7 15.5C7 17.812 7 18.101 7.051 19.002C7.06563 19.7082 7.20074 20.4068 7.4505 21.0675C7.65805 21.6366 7.99231 22.1511 8.428 22.572C8.85039 23.0059 9.36442 23.3398 9.9325 23.5495C10.5932 23.7993 11.2918 23.9344 11.998 23.949C12.899 24 13.188 24 15.5 24C17.812 24 18.101 24 19.002 23.949C19.7082 23.9344 20.4068 23.7993 21.0675 23.5495C21.6366 23.3419 22.1511 23.0077 22.572 22.572C23.0074 22.1492 23.3441 21.6355 23.558 21.0675C23.8004 20.405 23.9325 19.7072 23.949 19.002C23.949 18.101 24 17.812 24 15.5C24 13.188 24 12.899 23.949 11.998ZM22.419 18.9C22.4128 19.4396 22.3151 19.9741 22.13 20.481C21.9943 20.8509 21.7763 21.1852 21.4925 21.4585C21.2168 21.7394 20.8832 21.957 20.515 22.096C20.0081 22.2811 19.4736 22.3788 18.934 22.385C18.084 22.4275 17.7695 22.436 15.534 22.436C13.2985 22.436 12.984 22.436 12.134 22.385C11.5738 22.3955 11.0159 22.3092 10.485 22.13C10.1329 21.9839 9.81465 21.7669 9.55 21.4925C9.26788 21.2194 9.05262 20.8849 8.921 20.515C8.71348 20.0009 8.59838 19.4542 8.581 18.9C8.581 18.05 8.53 17.7355 8.53 15.5C8.53 13.2645 8.53 12.95 8.581 12.1C8.58481 11.5484 8.68551 11.0018 8.8785 10.485C9.02814 10.1262 9.25783 9.80641 9.55 9.55C9.80824 9.25774 10.1274 9.02563 10.485 8.87C11.0031 8.68304 11.5492 8.58532 12.1 8.581C12.95 8.581 13.2645 8.53 15.5 8.53C17.7355 8.53 18.05 8.53 18.9 8.581C19.4396 8.58719 19.9741 8.68491 20.481 8.87C20.8673 9.01335 21.2139 9.24642 21.4925 9.55C21.771 9.8111 21.9887 10.1303 22.13 10.485C22.3189 11.0026 22.4167 11.549 22.419 12.1C22.4615 12.95 22.47 13.2645 22.47 15.5C22.47 17.7355 22.4615 18.05 22.419 18.9ZM15.5 11.1395C14.6379 11.1412 13.7957 11.3983 13.0798 11.8785C12.3638 12.3587 11.8062 13.0403 11.4775 13.8372C11.1488 14.6341 11.0636 15.5106 11.2328 16.3559C11.402 17.2012 11.818 17.9774 12.4282 18.5863C13.0383 19.1953 13.8153 19.6098 14.6609 19.7773C15.5066 19.9449 16.3829 19.858 17.1791 19.5278C17.9754 19.1975 18.6559 18.6386 19.1347 17.9217C19.6135 17.2048 19.869 16.3621 19.869 15.5C19.8701 14.9263 19.7578 14.3581 19.5386 13.828C19.3193 13.2979 18.9974 12.8164 18.5913 12.4111C18.1853 12.0059 17.7032 11.6849 17.1726 11.4667C16.6421 11.2485 16.0737 11.1373 15.5 11.1395ZM15.5 18.3305C14.9402 18.3305 14.3929 18.1645 13.9275 17.8535C13.462 17.5425 13.0992 17.1004 12.885 16.5832C12.6707 16.066 12.6147 15.4969 12.7239 14.9478C12.8331 14.3987 13.1027 13.8944 13.4985 13.4985C13.8944 13.1027 14.3987 12.8331 14.9478 12.7239C15.4969 12.6147 16.066 12.6707 16.5832 12.885C17.1004 13.0992 17.5425 13.462 17.8535 13.9275C18.1645 14.3929 18.3305 14.9402 18.3305 15.5C18.3305 15.8717 18.2573 16.2398 18.115 16.5832C17.9728 16.9266 17.7643 17.2386 17.5015 17.5015C17.2386 17.7643 16.9266 17.9728 16.5832 18.115C16.2398 18.2573 15.8717 18.3305 15.5 18.3305Z" fill="white"/>
</svg>
