<svg width="31" height="31" viewBox="0 0 31 31" fill="none" xmlns="http://www.w3.org/2000/svg">
<circle cx="15.5" cy="15.5" r="15.5" fill="#FDCA7E"/>
<path d="M24.9959 13.4577C25.0363 12.2873 24.7803 11.1257 24.2518 10.0807C23.8932 9.65191 23.3955 9.36255 22.8454 9.26303C20.5703 9.05659 18.2857 8.97198 16.0015 9.00955C13.7257 8.97027 11.4493 9.05215 9.1822 9.25485C8.73397 9.33639 8.31917 9.54663 7.98841 9.85993C7.25251 10.5386 7.17074 11.6997 7.08898 12.6809C6.97034 14.445 6.97034 16.2152 7.08898 17.9793C7.11263 18.5316 7.19486 19.0798 7.33427 19.6147C7.43286 20.0277 7.63233 20.4097 7.91482 20.7267C8.24783 21.0566 8.67229 21.2788 9.13314 21.3645C10.896 21.5821 12.6722 21.6723 14.448 21.6343C17.3098 21.6752 19.82 21.6343 22.7882 21.4054C23.2603 21.3249 23.6967 21.1025 24.0392 20.7676C24.2681 20.5386 24.4391 20.2583 24.538 19.9499C24.8304 19.0526 24.974 18.1135 24.9631 17.1699C24.9959 16.712 24.9959 13.9483 24.9959 13.4577ZM14.1536 17.6605V12.5991L18.9942 15.142C17.6369 15.8943 15.8462 16.7447 14.1536 17.6605Z" fill="white"/>
</svg>
